<?xml version="1.0" encoding="UTF-8"?>
<svg width="878px" height="843px" viewBox="0 0 878 843" version="1.1" xmlns="http://www.w3.org/2000/svg" xmlns:xlink="http://www.w3.org/1999/xlink">
    <!-- Generator: Sketch 42 (36781) - http://www.bohemiancoding.com/sketch -->
    <title>Netherians GS</title>
    <desc>Created with Sketch.</desc>
    <defs>
        <rect id="path-1" x="525.647653" y="12.8533123" width="22.160525" height="85.5410095"></rect>
        <mask id="mask-2" maskContentUnits="userSpaceOnUse" maskUnits="objectBoundingBox" x="0" y="0" width="22.160525" height="85.5410095" fill="white">
            <use xlink:href="#path-1"></use>
        </mask>
        <rect id="path-3" x="470.24634" y="26.5930599" width="24.819788" height="14.1829653"></rect>
        <mask id="mask-4" maskContentUnits="userSpaceOnUse" maskUnits="objectBoundingBox" x="0" y="0" width="24.819788" height="14.1829653" fill="white">
            <use xlink:href="#path-3"></use>
        </mask>
        <rect id="path-5" x="0" y="0" width="878" height="843"></rect>
        <mask id="mask-6" maskContentUnits="userSpaceOnUse" maskUnits="objectBoundingBox" x="0" y="0" width="878" height="843" fill="white">
            <use xlink:href="#path-5"></use>
        </mask>
    </defs>
    <g id="Arquitetura-" stroke="none" stroke-width="1" fill="none" fill-rule="evenodd">
        <g id="The-Plan" transform="translate(-1561.000000, -101.000000)">
            <g id="Netherians-GS" transform="translate(1561.000000, 101.000000)">
                <g id="Netherians" transform="translate(38.559313, 600.559937)">
                    <path d="M35.6314649,149.976437 L35.6314649,169.911924 C34.0899711,170.78684 31.9235798,171.505511 29.1322261,172.067957 C26.3408725,172.630403 23.5078993,172.911621 20.6332216,172.911621 C16.3836981,172.911621 12.7279128,172.005472 9.66575618,170.193146 C6.60359953,168.38082 4.27056279,165.766527 2.66657597,162.350188 C1.06258915,158.933849 0.260607774,154.850969 0.260607774,150.101424 C0.260607774,145.35188 1.06258915,141.279415 2.66657597,137.883908 C4.27056279,134.4884 6.58276885,131.894938 9.6032635,130.103443 C12.6237582,128.311948 16.2170514,127.416215 20.3832509,127.416215 C26.5908882,127.416215 31.5694219,129.415993 35.3190015,133.415609 L34.0066552,135.602888 C31.8402315,133.60308 29.6738402,132.165739 27.5074165,131.290823 C25.3409927,130.415907 22.9038025,129.978456 20.1957728,129.978456 C14.7380515,129.978456 10.5094224,131.728262 7.50975871,135.227926 C4.51009505,138.72759 3.01028571,143.685373 3.01028571,150.101424 C3.01028571,156.642463 4.53092573,161.66274 7.57225139,165.162404 C10.613577,168.662068 14.9671902,170.411874 20.6332216,170.411874 C22.9246313,170.411874 25.16393,170.203564 27.3511848,169.786937 C29.5384395,169.37031 31.4861086,168.807873 33.1942504,168.099607 L33.1942504,152.538678 L20.8831923,152.538678 L20.8831923,149.976437 L35.6314649,149.976437 Z M112.559955,172.411672 L107.248077,160.100415 L82.6259606,160.100415 L77.3765755,172.411672 L74.5644048,172.411672 L93.6871651,127.916164 L96.249365,127.916164 L115.372125,172.411672 L112.559955,172.411672 Z M83.6883362,157.600667 L106.185701,157.600667 L94.9370187,131.353317 L83.6883362,157.600667 Z M193.425483,127.916164 L195.67522,127.916164 L195.67522,172.411672 L193.11302,172.411672 L193.175512,134.290521 L176.364981,172.411672 L174.24023,172.411672 L157.304714,134.602989 L157.367206,172.411672 L154.805007,172.411672 L154.805007,127.916164 L157.054743,127.916164 L175.302606,169.349481 L193.425483,127.916164 Z M239.04514,172.411672 L239.04514,127.916164 L265.792007,127.916164 L265.792007,130.353418 L241.669832,130.353418 L241.669832,148.601576 L264.542153,148.601576 L264.542153,151.101323 L241.669832,151.101323 L241.669832,169.974418 L265.792007,169.974418 L265.792007,172.411672 L239.04514,172.411672 Z M357.749986,171.474267 C355.146112,170.516025 352.80266,168.995361 350.71956,166.912227 L352.031906,164.724948 C354.239992,166.766419 356.468875,168.214175 358.718623,169.068259 C360.968371,169.922344 363.69719,170.34938 366.905164,170.34938 C370.863054,170.34938 373.93558,169.505724 376.122834,167.818386 C378.310089,166.131048 379.4037,163.766727 379.4037,160.725352 C379.4037,158.97552 378.862102,157.548595 377.77889,156.444534 C376.695679,155.340473 375.352099,154.507232 373.748113,153.944786 C372.144126,153.38234 370.008981,152.788656 367.342613,152.163716 C363.801343,151.330463 361.041277,150.559715 359.062333,149.85145 C357.083388,149.143184 355.323195,147.976647 353.781701,146.351803 C352.240207,144.726959 351.469472,142.51887 351.469472,139.727472 C351.469472,137.269374 352.094393,135.113363 353.344252,133.259375 C354.594112,131.405386 356.375136,129.968045 358.687377,128.94731 C360.999617,127.926575 363.718022,127.416215 366.842671,127.416215 C373.008647,127.416215 377.98718,129.415993 381.778422,133.415609 L380.466076,135.602888 C378.341314,133.644743 376.195753,132.217818 374.02933,131.32207 C371.862906,130.426323 369.467377,129.978456 366.842671,129.978456 C362.84312,129.978456 359.728932,130.842943 357.500016,132.571944 C355.271099,134.300945 354.156657,136.727759 354.156657,139.852459 C354.156657,142.51887 355.125284,144.497817 357.062567,145.78936 C358.99985,147.080902 361.718254,148.164115 365.217862,149.039032 L368.030032,149.726462 C371.071358,150.434728 373.529379,151.132567 375.404169,151.820001 C377.278958,152.507435 378.872506,153.580232 380.184859,155.038426 C381.497212,156.496619 382.153378,158.454735 382.153378,160.912833 C382.153378,163.245942 381.528458,165.318629 380.278598,167.130955 C379.028738,168.943281 377.247714,170.359791 374.935473,171.380526 C372.623233,172.401261 369.94649,172.911621 366.905164,172.911621 C363.405556,172.911621 360.353861,172.432508 357.749986,171.474267 Z M433.584854,172.411672 L433.584854,130.290924 L417.211772,130.290924 L417.211772,127.916164 L452.582629,127.916164 L452.582629,130.290924 L436.147054,130.290924 L436.147054,172.411672 L433.584854,172.411672 Z M494.608957,168.505816 C491.75511,165.568598 490.328208,161.246161 490.328208,155.538375 L490.328208,127.916164 L492.890408,127.916164 L492.890408,155.975831 C492.890408,165.558245 497.660635,170.34938 507.201232,170.34938 C511.867375,170.34938 515.398176,169.141181 517.793741,166.724746 C520.189306,164.308311 521.38707,160.725375 521.38707,155.975831 L521.38707,127.916164 L524.011763,127.916164 L524.011763,155.538375 C524.011763,161.246161 522.584861,165.568598 519.731014,168.505816 C516.877167,171.443034 512.700615,172.911621 507.201232,172.911621 C501.660186,172.911621 497.462803,171.443034 494.608957,168.505816 Z M567.006727,127.916164 L580.692624,127.916164 C587.691839,127.916164 593.076571,129.832618 596.846982,133.665584 C600.617392,137.498549 602.502569,142.977108 602.502569,150.101424 C602.502569,157.225741 600.606977,162.72513 596.815735,166.599759 C593.024494,170.474387 587.650177,172.411672 580.692624,172.411672 L567.006727,172.411672 L567.006727,127.916164 Z M580.630131,170.036912 C586.921093,170.036912 591.660073,168.360014 594.847216,165.00617 C598.034359,161.652325 599.627906,156.684126 599.627906,150.101424 C599.627906,143.518723 598.034359,138.571355 594.847216,135.259173 C591.660073,131.946991 586.921093,130.290924 580.630131,130.290924 L569.568927,130.290924 L569.568927,170.036912 L580.630131,170.036912 Z M644.060202,172.411672 L644.060202,127.916164 L646.622402,127.916164 L646.622402,172.411672 L644.060202,172.411672 Z M697.272719,170.161899 C694.335549,168.328742 692.085835,165.704033 690.52351,162.287694 C688.961185,158.871355 688.180034,154.830137 688.180034,150.163918 C688.180034,145.497699 688.961185,141.456481 690.52351,138.040142 C692.085835,134.623803 694.325133,131.999094 697.241473,130.165937 C700.157813,128.332779 703.615706,127.416215 707.615258,127.416215 C711.614809,127.416215 715.083119,128.332779 718.020289,130.165937 C720.95746,131.999094 723.207174,134.613388 724.769499,138.008895 C726.331824,141.404403 727.112974,145.435205 727.112974,150.101424 C727.112974,154.767643 726.331824,158.819277 724.769499,162.256447 C723.207174,165.693617 720.95746,168.328742 718.020289,170.161899 C715.083119,171.995056 711.614809,172.911621 707.615258,172.911621 C703.657368,172.911621 700.20989,171.995056 697.272719,170.161899 Z M719.863823,165.037416 C722.780163,161.49609 724.238311,156.517475 724.238311,150.101424 C724.238311,143.685373 722.790578,138.72759 719.89507,135.227926 C716.999561,131.728262 712.906331,129.978456 707.615258,129.978456 C702.324185,129.978456 698.230955,131.738677 695.335446,135.259173 C692.439938,138.779668 690.992205,143.727036 690.992205,150.101424 C690.992205,156.475813 692.450353,161.444011 695.366693,165.00617 C698.283032,168.568328 702.365847,170.34938 707.615258,170.34938 C712.864669,170.34938 716.947484,168.578743 719.863823,165.037416 Z M772.888863,171.474267 C770.284988,170.516025 767.941536,168.995361 765.858436,166.912227 L767.170782,164.724948 C769.378868,166.766419 771.607751,168.214175 773.857499,169.068259 C776.107247,169.922344 778.836067,170.34938 782.04404,170.34938 C786.00193,170.34938 789.074456,169.505724 791.261711,167.818386 C793.448966,166.131048 794.542576,163.766727 794.542576,160.725352 C794.542576,158.97552 794.000979,157.548595 792.917767,156.444534 C791.834555,155.340473 790.490976,154.507232 788.886989,153.944786 C787.283002,153.38234 785.147857,152.788656 782.481489,152.163716 C778.94022,151.330463 776.180154,150.559715 774.201209,149.85145 C772.222264,149.143184 770.462071,147.976647 768.920577,146.351803 C767.379084,144.726959 766.608348,142.51887 766.608348,139.727472 C766.608348,137.269374 767.233269,135.113363 768.483129,133.259375 C769.732989,131.405386 771.514012,129.968045 773.826253,128.94731 C776.138494,127.926575 778.856898,127.416215 781.981548,127.416215 C788.147523,127.416215 793.126057,129.415993 796.917298,133.415609 L795.604952,135.602888 C793.48019,133.644743 791.33463,132.217818 789.168206,131.32207 C787.001782,130.426323 784.606253,129.978456 781.981548,129.978456 C777.981996,129.978456 774.867809,130.842943 772.638892,132.571944 C770.409975,134.300945 769.295534,136.727759 769.295534,139.852459 C769.295534,142.51887 770.26416,144.497817 772.201443,145.78936 C774.138726,147.080902 776.85713,148.164115 780.356738,149.039032 L783.168909,149.726462 C786.210234,150.434728 788.668255,151.132567 790.543045,151.820001 C792.417835,152.507435 794.011382,153.580232 795.323735,155.038426 C796.636088,156.496619 797.292254,158.454735 797.292254,160.912833 C797.292254,163.245942 796.667334,165.318629 795.417474,167.130955 C794.167614,168.943281 792.386591,170.359791 790.07435,171.380526 C787.762109,172.401261 785.085366,172.911621 782.04404,172.911621 C778.544433,172.911621 775.492737,172.432508 772.888863,171.474267 Z" id="G-A-M-E-S-T-U-D-I-O" fill="#DC2D00"></path>
                    <path d="M745.964221,88.0988563 L745.964221,71.1055343 C745.964221,71.1055343 769.561142,76.3850564 771.274407,76.3850564 C772.987672,76.3850564 790.709038,71.1055343 777.159833,61.3999159 C772.602545,58.1354216 761.393306,50.6515229 758.154886,48.862097 C754.916465,47.0726711 748.674295,42.0060529 745.964221,38.0565888 C744.451687,35.852331 743.846736,30.1525861 745.964221,26.2327028 C748.081707,22.3128195 747.148696,21.1028608 753.439976,16.3448365 C759.731256,11.5868122 763.436747,11.6041463 767.409064,10.0142095 C771.381381,8.42427277 790.390907,10.0142095 790.390907,10.0142095 C790.390907,10.0142095 776.233536,10.0161759 769.314719,16.3448365 C762.395903,22.673497 763.150929,26.6242314 763.150929,28.9346564 C763.150929,34.1644158 774.054656,39.9878865 780.445362,42.695166 C786.836069,45.4024456 792.818506,45.689886 798.682904,54.1995301 C804.547303,62.7091742 805.306498,69.9080958 803.847547,76.3850564 C802.388597,82.8620169 796.525574,90.1533887 780.445362,93.8600815 C764.36515,97.5667743 745.964221,88.0988563 745.964221,88.0988563 Z" id="Path-12" stroke="#DC2D00" stroke-width="6" fill="#DC2D00"></path>
                    <path d="M647.08733,15.5840006 L647.08733,94.8455535 L674.712956,94.8455535 L665.67726,42.9873785 C665.67726,42.9873785 676.483823,35.9701236 692.577578,55.1106191 C708.671334,74.2511146 702.483602,94.8455535 702.483602,94.8455535 L722.796543,94.8455535 C722.796543,94.8455535 726.970529,86.561148 729.885006,76.7989197 C731.157956,72.5350929 732.140588,66.1285598 732.916114,58.0168783 C733.658168,50.2552963 731.194717,39.3519555 731.194717,39.3519555 L712.992076,29.7229043 C712.992076,29.7229043 715.404725,36.1082785 717.179705,40.7695375 C718.660267,44.6576266 718.210417,50.9574752 718.210417,53.1407719 C718.210417,57.941527 715.450078,63.9667987 715.450078,63.9667987 C715.450078,63.9667987 707.311647,43.5720336 702.483602,35.594319 C697.655556,27.6166043 686.169216,15.5840006 686.169216,15.5840006 C686.169216,15.5840006 647.08733,13.4289109 647.08733,15.5840006 Z" id="Path-5" stroke="#DC2D00" stroke-width="6" fill="#DC2D00"></path>
                    <path d="M561.547703,92.6411253 C561.547703,92.6411253 568.184341,37.8062602 568.184341,31.0323391 C568.184341,24.258418 565.304246,15.0694006 565.304246,15.0694006 L598.549526,15.0694006 C598.549526,15.0694006 608.628247,15.9809452 621.596645,42.58349 C634.565043,69.1860348 635.551348,94.8509913 635.551348,94.8509913 C635.551348,94.8509913 619.837522,73.4075979 609.583525,64.6702332 C599.329529,55.9328686 589.208687,60.2160756 589.208687,60.2160756 C589.208687,60.2160756 582.713919,63.1630922 576.505813,70.312078 C570.297707,77.4610639 561.547703,92.6411253 561.547703,92.6411253 Z" id="Path-10" stroke="#DC2D00" stroke-width="6" fill="#DC2D00"></path>
                    <path d="M584.594649,40.3354063 C584.594649,40.3354063 591.920049,40.7489034 596.456357,42.1485572 C600.992665,43.548211 603.741252,45.1526672 603.741252,45.1526672 C603.741252,45.1526672 603.741252,40.3354063 601.191795,37.2668485 C598.642338,34.1982908 584.594649,30.1388013 584.594649,30.1388013 L584.594649,40.3354063 Z" id="Path-11" stroke="#DC2D00" fill="#FFFFFF"></path>
                    <use id="Rectangle-2" stroke="#DC2D00" mask="url(#mask-2)" stroke-width="12" fill="#DC2D00" xlink:href="#path-1"></use>
                    <path d="M453.847552,98.1886277 L453.847552,15.955836 L508.978604,15.955836 L508.978604,53.1162106 L477.403517,53.1162106 C477.403517,53.1162106 496.096025,57.8374606 504.728238,68.544446 C513.360451,79.2514314 513.741916,98.1886277 513.741916,98.1886277 L495.595807,98.1886277 C495.595807,98.1886277 495.707963,82.0693049 485.886105,74.6669187 C476.064247,67.2645325 471.302584,70.7199691 471.302584,70.7199691 L471.302584,98.1886277 L453.847552,98.1886277 Z" id="Path-9" stroke="#DC2D00" stroke-width="6" fill="#DC2D00"></path>
                    <use id="Rectangle" stroke="#DC2D00" mask="url(#mask-4)" stroke-width="6" fill="#FFFFFF" xlink:href="#path-3"></use>
                    <polygon id="Path-6" stroke="#DC2D00" stroke-width="6" fill="#DC2D00" points="357.670873 98.6318453 357.670873 16.3990536 401.271169 16.3990536 401.271169 37.3721896 384.641785 37.3721896 384.641785 45.9124069 419.583858 45.9124069 419.807153 66.2630046 384.641785 66.2630046 384.641785 76.4020849 441.833664 76.4020849 441.833664 98.6318453"></polygon>
                    <polygon id="Path-8" stroke="#DC2D00" stroke-width="6" fill="#DC2D00" points="290.302877 16.3990536 290.302877 98.6318453 309.204646 98.6318453 309.204646 72.844375 328.336731 72.844375 328.336731 98.6318453 346.162828 98.6318453 346.162828 16.3990536 328.336731 16.3990536 328.336731 59.3424447 308.231536 59.3424447 308.231536 16.3990536"></polygon>
                    <polygon id="Path-7" stroke="#DC2D00" stroke-width="6" fill="#DC2D00" points="225.746152 98.1886277 225.746152 38.9387222 200.331146 32.4642556 200.331146 15.955836 278.81455 15.955836 278.81455 32.5349147 251.665626 38.9387222 251.665626 98.1886277"></polygon>
                    <polygon id="Path-6" stroke="#DC2D00" stroke-width="6" fill="#DC2D00" points="122.769308 98.6318453 122.769308 16.3990536 166.369604 16.3990536 166.369604 37.3721896 149.74022 37.3721896 149.74022 45.9124069 184.682293 45.9124069 184.905588 66.2630046 149.74022 66.2630046 149.74022 76.4020849 206.932099 76.4020849 206.932099 98.6318453"></polygon>
                    <path d="M0.886420999,1.1800821 L0.886420999,98.8345125 L34.9226552,98.8345125 L23.7902,34.9424948 C23.7902,34.9424948 37.1044573,26.2968651 56.9328165,49.8789692 C76.7611756,73.4610732 69.1375616,98.8345125 69.1375616,98.8345125 L94.1641816,98.8345125 C94.1641816,98.8345125 99.3067525,88.6276862 102.897543,76.6001039 C104.465884,71.3468436 105.67654,63.4536556 106.632029,53.4596344 C107.546279,43.8969543 104.511176,30.4634611 104.511176,30.4634611 L82.0845589,18.5999601 C82.0845589,18.5999601 85.0570694,26.4670793 87.2439393,32.2099972 C89.0680699,37.0003289 88.5138305,44.7620759 88.5138305,47.4520131 C88.5138305,53.3667976 85.1129475,60.7902514 85.1129475,60.7902514 C85.1129475,60.7902514 75.0859697,35.6628208 69.1375616,25.8338539 C63.1891536,16.004887 49.0373749,1.1800821 49.0373749,1.1800821 C49.0373749,1.1800821 0.886420999,-1.47510262 0.886420999,1.1800821 Z" id="Path-5" stroke="#DC2D00" stroke-width="6" fill="#DC2D00"></path>
                </g>
                <g id="Group-3" transform="translate(34.570419, 36.343849)">
                    <rect id="Rectangle-4" fill="#DC2D00" x="0" y="0" width="808.859162" height="542.055205"></rect>
                    <polygon id="Rectangle-5" fill="#FFFFFF" points="143.464799 181.090192 261.024485 181.090192 271.166719 271.027603 116.02488 260.01228"></polygon>
                    <polygon id="Rectangle-5" fill="#FFFFFF" transform="translate(631.175346, 226.058897) scale(-1, 1) translate(-631.175346, -226.058897) " points="581.044346 181.090192 698.604031 181.090192 708.746266 271.027603 553.604426 260.01228"></polygon>
                    <g id="Group-2" transform="translate(82.874914, 103.914170)">
                        <path d="M117.106174,304.806966 C117.106174,304.806966 66.8188784,270.502281 60.8272217,258.501092 C54.8355649,246.499903 46.9999477,184.344314 46.9999477,184.344314 L33.1038508,153.673647 L203.398859,155.853238 L187.347487,184.344314 C187.347487,184.344314 182.255262,246.78433 175.004675,258.501092 C167.754087,270.217853 117.106174,304.806966 117.106174,304.806966 Z" id="Path-13" fill="#FFFFFF"></path>
                        <path d="M33.8579894,156.017399 C33.8579894,156.017399 7.43274083,148.513488 2.37849883,130.335943 C-1.9182248,114.882807 0.0766826026,108.272547 4.62185624,99.1529655 C9.16702987,90.0333838 22.6449115,86.1269438 30.7907056,73.1158263 C38.9364997,60.1047088 35.7207332,52.0460056 35.7207332,52.0460056 C35.7207332,52.0460056 65.589539,91.0749363 67.7159788,92.4897072" id="Path-14" stroke="#DC2D00" stroke-width="6" fill="#FFFFFF"></path>
                        <path d="M59.1012796,82.0515003 C54.8045559,66.5983644 63.1221348,54.9390495 73.3918678,46.8474112 C83.6616007,38.755773 97.2865797,36.7155511 105.432374,23.7044336 C113.578168,10.6933161 118.605158,-7.10542736e-15 118.605158,-7.10542736e-15 L126.592935,23.7044336 C126.592935,23.7044336 134.370499,36.0742308 155.841718,46.8474112 C177.312936,57.6205917 173.518466,71.1321061 171.807972,78.9250119" id="Path-14" stroke="#DC2D00" stroke-width="6" fill="#FFFFFF"></path>
                        <path d="M185.03019,156.051904 C185.03019,156.051904 167.531485,148.513488 162.477243,130.335943 C158.180519,114.882807 160.175427,108.272547 164.7206,99.1529655 C169.265774,90.0333838 182.743656,86.1269438 190.88945,73.1158263 C199.035244,60.1047088 195.819477,52.0460056 195.819477,52.0460056 C195.819477,52.0460056 225.688283,91.0749363 227.814723,92.4897072" id="Path-14" stroke="#DC2D00" stroke-width="6" fill="#FFFFFF" transform="translate(193.956734, 104.048955) scale(-1, 1) translate(-193.956734, -104.048955) "></path>
                        <path d="M46.7753608,183.638447 L117.536953,197.566099 L188.298546,183.657616 L159.061219,215.16284 C159.061219,215.16284 123.359803,225.553329 123.359803,222.909195 C123.359803,220.26506 117.536953,207.176315 117.536953,207.176315 C117.536953,207.176315 114.015674,220.183876 112.485806,222.909195 C110.955939,225.634513 75.8182233,215.16284 75.8182233,215.16284 L46.7753608,183.638447 Z" id="Path-15" stroke="#DC2D00" fill="#DC2D00"></path>
                    </g>
                    <g id="Group-2" transform="translate(502.553479, 103.914170)">
                        <path d="M117.106174,304.806966 C117.106174,304.806966 66.6998281,269.73467 60.8272217,258.501092 C54.9546152,247.267513 46.9999477,184.344314 46.9999477,184.344314 L33.1038508,153.673647 L203.398859,155.853238 L187.347487,184.344314 C187.347487,184.344314 180.845161,248.089953 175.004675,258.501092 C169.164189,268.912231 117.106174,304.806966 117.106174,304.806966 Z" id="Path-13" fill="#FFFFFF"></path>
                        <path d="M33.6746743,153.727639 C33.6746743,153.727639 7.43274083,148.513488 2.37849883,130.335943 C-1.9182248,114.882807 0.0766826026,108.272547 4.62185624,99.1529655 C9.16702987,90.0333838 22.6449115,86.1269438 30.7907056,73.1158263 C38.9364997,60.1047088 35.7207332,52.0460056 35.7207332,52.0460056 C35.7207332,52.0460056 65.589539,91.0749363 67.7159788,92.4897072" id="Path-14" stroke="#DC2D00" stroke-width="6" fill="#FFFFFF"></path>
                        <path d="M59.1012796,82.0515003 C54.8045559,66.5983644 63.1221348,54.9390495 73.3918678,46.8474112 C83.6616007,38.755773 97.2865797,36.7155511 105.432374,23.7044336 C113.578168,10.6933161 118.605158,-7.10542736e-15 118.605158,-7.10542736e-15 L126.592935,23.7044336 C126.592935,23.7044336 134.370499,36.0742308 155.841718,46.8474112 C177.312936,57.6205917 173.518466,71.1321061 171.807972,78.9250119" id="Path-14" stroke="#DC2D00" stroke-width="6" fill="#FFFFFF"></path>
                        <path d="M184.194246,157.300319 C184.194246,157.300319 167.531485,148.513488 162.477243,130.335943 C158.180519,114.882807 160.175427,108.272547 164.7206,99.1529655 C169.265774,90.0333838 182.743656,86.1269438 190.88945,73.1158263 C199.035244,60.1047088 195.819477,52.0460056 195.819477,52.0460056 C195.819477,52.0460056 225.688283,91.0749363 227.814723,92.4897072" id="Path-14" stroke="#DC2D00" stroke-width="6" fill="#FFFFFF" transform="translate(193.956734, 104.673162) scale(-1, 1) translate(-193.956734, -104.673162) "></path>
                        <path d="M46.7753608,183.638447 L117.536953,197.566099 L188.298546,183.657616 L159.061219,215.16284 C159.061219,215.16284 123.359803,225.553329 123.359803,222.909195 C123.359803,220.26506 117.536953,207.176315 117.536953,207.176315 C117.536953,207.176315 114.015674,220.183876 112.485806,222.909195 C110.955939,225.634513 75.8182233,215.16284 75.8182233,215.16284 L46.7753608,183.638447 Z" id="Path-15" stroke="#DC2D00" fill="#DC2D00"></path>
                    </g>
                    <g id="Group-2" transform="translate(222.104770, 34.638057)">
                        <path d="M187.233708,487.569708 C187.233708,487.569708 103.146073,427.220857 97.2528253,413.498758 C91.3595781,399.776659 75.1452652,294.877458 75.1452652,294.877458 L52.9276684,245.81661 L325.201664,249.303088 L299.538133,294.877458 C299.538133,294.877458 288.606687,402.137746 279.803986,413.498758 C271.001284,424.85977 187.233708,487.569708 187.233708,487.569708 Z" id="Path-13" fill="#FFFFFF"></path>
                        <path d="M54.1334133,251.148462 C54.1334133,251.148462 11.8837426,237.562413 3.80283244,208.485582 C-3.06692918,183.766722 0.122602998,173.192939 7.38959573,158.605242 C14.6565885,144.017544 36.2055272,137.768797 49.2293258,116.956192 C62.2531245,96.1435879 57.1116374,83.2528734 57.1116374,83.2528734 C57.1116374,83.2528734 104.866996,145.683613 108.266827,147.946683" id="Path-14" stroke="#DC2D00" stroke-width="6" fill="#FFFFFF"></path>
                        <path d="M94.4933249,131.249711 C87.6235633,106.53085 100.922018,87.8805911 117.341649,74.9371937 C133.76128,61.9937963 155.545404,58.7302541 168.569202,37.9176497 C181.593001,17.1050454 189.63034,-1.42108547e-14 189.63034,-1.42108547e-14 L202.401494,37.9176497 C202.401494,37.9176497 214.836554,57.704397 249.165537,74.9371937 C283.494519,92.1699903 277.427779,113.78303 274.692979,126.248575" id="Path-14" stroke="#DC2D00" stroke-width="6" fill="#FFFFFF"></path>
                        <path d="M294.895006,250.733089 C294.895006,250.733089 267.855572,237.562413 259.774662,208.485582 C252.9049,183.766722 256.094432,173.192939 263.361425,158.605242 C270.628418,144.017544 292.177357,137.768797 305.201155,116.956192 C318.224954,96.1435879 313.083467,83.2528734 313.083467,83.2528734 C313.083467,83.2528734 360.838825,145.683613 364.238656,147.946683" id="Path-14" stroke="#DC2D00" stroke-width="6" fill="#FFFFFF" transform="translate(310.105243, 166.992981) scale(-1, 1) translate(-310.105243, -166.992981) "></path>
                        <path d="M74.7861872,293.748353 L187.922454,316.027047 L301.058721,293.779015 L254.312995,344.174822 C254.312995,344.174822 197.232243,360.795464 197.232243,356.565903 C197.232243,352.336342 187.922454,331.399563 187.922454,331.399563 C187.922454,331.399563 182.292502,352.206479 179.846493,356.565903 C177.400484,360.925327 121.220997,344.174822 121.220997,344.174822 L74.7861872,293.748353 Z" id="Path-15" stroke="#DC2D00" fill="#DC2D00"></path>
                    </g>
                    <path d="M282.437707,206.612971 C282.437707,206.612971 286.361726,182.231895 317.188831,167.149016 C348.015936,152.066136 391.938099,151.603339 410.896911,151.603339 C430.880157,151.603339 464.663503,145.216813 492.283036,158.064566 C519.902569,170.912318 547.637433,206.612971 547.637433,206.612971 L547.637433,282.429979 C547.637433,282.429979 524.745709,299.166962 508.347371,299.166962 C491.949033,299.166962 274.15639,282.429979 274.15639,282.429979 L282.437707,206.612971 Z" id="Rectangle-3" fill="#FFFFFF"></path>
                </g>
                <use id="Rectangle-6" stroke="#DD2C00" mask="url(#mask-6)" stroke-width="36" xlink:href="#path-5"></use>
            </g>
        </g>
    </g>
</svg>